<svg width="482" height="52" viewBox="0 0 482 52" fill="none" xmlns="http://www.w3.org/2000/svg">
<path d="M18.9583 22L24.375 18L18.9583 14" stroke="#B0C1FF" stroke-width="4" stroke-linecap="round" stroke-linejoin="round"/>
<path d="M29.7917 26H40.625" stroke="#B0C1FF" stroke-width="4" stroke-linecap="round" stroke-linejoin="round"/>
<path d="M51.4583 6H13.5417C10.5501 6 8.125 7.79086 8.125 10V38C8.125 40.2091 10.5501 42 13.5417 42H51.4583C54.4499 42 56.875 40.2091 56.875 38V10C56.875 7.79086 54.4499 6 51.4583 6Z" stroke="#B0C1FF" stroke-width="5" stroke-linecap="round" stroke-linejoin="round"/>
<path d="M107.396 17.0246C107.396 19.5026 106.683 21.5128 105.255 23.0554C103.844 24.5815 102.112 25.6892 100.061 26.3785L109.39 41H101.661L93.6119 27.4369H90.5103V41H83.7903V6.95693H93.8088C98.2888 6.95693 101.669 7.78564 103.95 9.44308C106.248 11.1005 107.396 13.6277 107.396 17.0246ZM100.406 17.0246C100.406 15.2031 99.8724 13.8821 98.8057 13.0615C97.7391 12.241 96.1308 11.8308 93.9811 11.8308H90.5103V22.6615H94.2026C96.1883 22.6615 97.7144 22.2267 98.7811 21.3569C99.8642 20.4708 100.406 19.0267 100.406 17.0246ZM119.205 29.9477C119.402 32.3928 120.124 34.1569 121.371 35.24C122.618 36.3231 124.136 36.8646 125.925 36.8646C127.172 36.8646 128.345 36.6677 129.445 36.2738C130.544 35.88 131.627 35.3303 132.694 34.6246L135.402 38.3415C134.187 39.359 132.735 40.1795 131.045 40.8031C129.371 41.4267 127.525 41.7385 125.506 41.7385C122.684 41.7385 120.304 41.1559 118.368 39.9908C116.448 38.8256 114.995 37.2092 114.011 35.1415C113.026 33.0738 112.534 30.6944 112.534 28.0031C112.534 25.4103 113.01 23.0718 113.962 20.9877C114.93 18.9036 116.325 17.2544 118.146 16.04C119.984 14.8092 122.191 14.1938 124.768 14.1938C128.345 14.1938 131.184 15.359 133.285 17.6892C135.385 20.0195 136.435 23.2441 136.435 27.3631C136.435 28.3149 136.394 29.1764 136.312 29.9477H119.205ZM124.792 18.7723C123.217 18.7723 121.921 19.3385 120.903 20.4708C119.902 21.6031 119.311 23.3754 119.131 25.7877H130.109C130.076 23.5887 129.625 21.8738 128.755 20.6431C127.886 19.3959 126.565 18.7723 124.792 18.7723ZM163.997 34.1323C163.997 35.1333 164.145 35.8636 164.441 36.3231C164.736 36.7826 165.212 37.119 165.868 37.3323L164.465 41.6892C163.087 41.5415 161.905 41.1969 160.921 40.6554C159.936 40.0974 159.181 39.2687 158.656 38.1692C157.671 39.3672 156.424 40.2615 154.914 40.8523C153.421 41.4431 151.854 41.7385 150.213 41.7385C147.554 41.7385 145.446 40.9836 143.887 39.4738C142.328 37.9641 141.548 36.0031 141.548 33.5908C141.548 30.8174 142.631 28.6841 144.797 27.1908C146.98 25.681 150.065 24.9262 154.053 24.9262H157.696V23.5231C157.696 21.9805 157.212 20.8646 156.244 20.1754C155.292 19.4697 153.93 19.1169 152.157 19.1169C151.321 19.1169 150.27 19.2318 149.007 19.4615C147.743 19.6749 146.455 20.0113 145.142 20.4708L143.591 16.0154C145.249 15.3918 146.914 14.9323 148.588 14.6369C150.278 14.3415 151.813 14.1938 153.191 14.1938C156.851 14.1938 159.567 14.9733 161.339 16.5323C163.111 18.0749 163.997 20.2656 163.997 23.1046V34.1323ZM152.33 37.0369C153.314 37.0369 154.307 36.7662 155.308 36.2246C156.309 35.6667 157.105 34.879 157.696 33.8615V28.7908H155.136C152.724 28.7908 150.976 29.1764 149.893 29.9477C148.826 30.719 148.293 31.8103 148.293 33.2215C148.293 35.7651 149.638 37.0369 152.33 37.0369ZM185.849 36.52C186.997 36.52 188.072 36.3067 189.073 35.88C190.074 35.4533 191.051 34.9118 192.003 34.2554L194.956 38.4154C193.808 39.3836 192.421 40.1795 190.796 40.8031C189.172 41.4267 187.432 41.7385 185.578 41.7385C182.837 41.7385 180.491 41.1723 178.538 40.04C176.602 38.9077 175.116 37.3159 174.083 35.2646C173.049 33.2133 172.532 30.8338 172.532 28.1262C172.532 25.4513 173.057 23.0636 174.107 20.9631C175.174 18.8626 176.684 17.2133 178.636 16.0154C180.606 14.801 182.952 14.1938 185.676 14.1938C187.547 14.1938 189.237 14.4646 190.747 15.0062C192.273 15.5313 193.668 16.319 194.932 17.3692L192.052 21.3569C191.084 20.7005 190.083 20.1918 189.049 19.8308C188.015 19.4697 186.956 19.2892 185.873 19.2892C183.953 19.2892 182.386 19.9867 181.172 21.3815C179.974 22.76 179.375 25.0082 179.375 28.1262C179.375 31.2113 179.99 33.3856 181.221 34.6492C182.452 35.8964 183.994 36.52 185.849 36.52ZM224.758 39.5477C223.79 40.1877 222.617 40.7128 221.238 41.1231C219.86 41.5333 218.367 41.7385 216.758 41.7385C213.575 41.7385 211.179 40.9179 209.571 39.2769C207.963 37.6195 207.158 35.4205 207.158 32.68V19.5354H201.497V14.9323H207.158V9.19692L213.657 8.40923V14.9323H222.272L221.608 19.5354H213.657V32.6554C213.657 34.001 213.985 34.9856 214.641 35.6092C215.298 36.2328 216.356 36.5446 217.817 36.5446C218.752 36.5446 219.606 36.4379 220.377 36.2246C221.165 35.9949 221.878 35.7077 222.518 35.3631L224.758 39.5477Z" fill="#B0C1FF"/>
<path d="M261.943 13.2492V42H255.223V13.2492H245.278V7.95693H272.183L271.493 13.2492H261.943ZM282.908 30.9477C283.105 33.3928 283.827 35.1569 285.074 36.24C286.321 37.3231 287.839 37.8646 289.628 37.8646C290.875 37.8646 292.048 37.6677 293.148 37.2738C294.247 36.88 295.33 36.3303 296.397 35.6246L299.105 39.3415C297.89 40.359 296.438 41.1795 294.748 41.8031C293.074 42.4267 291.228 42.7385 289.209 42.7385C286.387 42.7385 284.007 42.1559 282.071 40.9908C280.151 39.8256 278.699 38.2092 277.714 36.1415C276.729 34.0738 276.237 31.6944 276.237 29.0031C276.237 26.4103 276.713 24.0718 277.665 21.9877C278.633 19.9036 280.028 18.2544 281.849 17.04C283.687 15.8092 285.894 15.1938 288.471 15.1938C292.048 15.1938 294.887 16.359 296.988 18.6892C299.088 21.0195 300.139 24.2441 300.139 28.3631C300.139 29.3149 300.098 30.1764 300.015 30.9477H282.908ZM288.495 19.7723C286.92 19.7723 285.624 20.3385 284.606 21.4708C283.605 22.6031 283.014 24.3754 282.834 26.7877H293.812C293.78 24.5887 293.328 22.8738 292.459 21.6431C291.589 20.3959 290.268 19.7723 288.495 19.7723ZM307.147 42V37.4954H310.814V20.4123H307.147V15.9323H315.762L316.968 21.9138C317.92 19.7149 319.118 18.0492 320.562 16.9169C322.006 15.7846 323.82 15.2185 326.002 15.2185C326.839 15.2185 327.577 15.2841 328.217 15.4154C328.857 15.5467 329.481 15.719 330.088 15.9323L328.931 26.0985H324.599V21.0031C322.909 21.1508 321.448 21.9221 320.217 23.3169C318.987 24.6954 318.019 26.5169 317.313 28.7815V37.4954H322.507V42H307.147ZM354.967 15.1938C356.608 15.1938 357.905 15.7436 358.856 16.8431C359.808 17.9262 360.284 19.8708 360.284 22.6769V42H354.623V23.4892C354.623 22.3241 354.532 21.4954 354.352 21.0031C354.171 20.4944 353.745 20.24 353.072 20.24C352.53 20.24 351.981 20.4041 351.423 20.7323C350.865 21.0441 350.298 21.6103 349.724 22.4308V42H344.826V23.4892C344.826 22.3241 344.735 21.4954 344.555 21.0031C344.374 20.4944 343.948 20.24 343.275 20.24C342.733 20.24 342.184 20.4041 341.626 20.7323C341.068 21.0441 340.502 21.6103 339.927 22.4308V42H334.192V15.9323H339.041L339.46 18.64C340.231 17.5733 341.043 16.7364 341.896 16.1292C342.75 15.5056 343.775 15.1938 344.973 15.1938C345.958 15.1938 346.828 15.44 347.583 15.9323C348.354 16.4082 348.904 17.2287 349.232 18.3938C349.987 17.4421 350.824 16.6708 351.743 16.08C352.678 15.4892 353.753 15.1938 354.967 15.1938ZM376.745 2.78769C377.926 2.78769 378.894 3.15693 379.649 3.89539C380.404 4.63385 380.782 5.55282 380.782 6.65231C380.782 7.7518 380.404 8.67898 379.649 9.43385C378.894 10.1723 377.926 10.5415 376.745 10.5415C375.547 10.5415 374.57 10.1723 373.815 9.43385C373.061 8.67898 372.683 7.7518 372.683 6.65231C372.683 5.55282 373.061 4.63385 373.815 3.89539C374.57 3.15693 375.547 2.78769 376.745 2.78769ZM380.954 15.9323V37.3969H387.822V42H366.825V37.3969H374.455V20.5354H367.071V15.9323H380.954ZM395.494 42V15.9323H401.156L401.624 19.1569C403.872 16.5149 406.629 15.1938 409.894 15.1938C412.225 15.1938 414.005 15.8749 415.236 17.2369C416.483 18.5826 417.107 20.4779 417.107 22.9231V42H410.608V25.4585C410.608 23.4892 410.403 22.0944 409.993 21.2738C409.599 20.4533 408.746 20.0431 407.433 20.0431C406.366 20.0431 405.373 20.3795 404.454 21.0523C403.535 21.7251 402.715 22.5456 401.993 23.5138V42H395.494ZM445.826 35.1323C445.826 36.1333 445.973 36.8636 446.269 37.3231C446.564 37.7826 447.04 38.119 447.696 38.3323L446.293 42.6892C444.915 42.5415 443.733 42.1969 442.749 41.6554C441.764 41.0974 441.009 40.2687 440.484 39.1692C439.499 40.3672 438.252 41.2615 436.742 41.8523C435.249 42.4431 433.682 42.7385 432.041 42.7385C429.382 42.7385 427.274 41.9836 425.715 40.4738C424.156 38.9641 423.376 37.0031 423.376 34.5908C423.376 31.8174 424.459 29.6841 426.626 28.1908C428.808 26.681 431.893 25.9262 435.881 25.9262H439.524V24.5231C439.524 22.9805 439.04 21.8646 438.072 21.1754C437.12 20.4697 435.758 20.1169 433.986 20.1169C433.149 20.1169 432.098 20.2318 430.835 20.4615C429.571 20.6749 428.283 21.0113 426.97 21.4708L425.419 17.0154C427.077 16.3918 428.742 15.9323 430.416 15.6369C432.107 15.3415 433.641 15.1938 435.019 15.1938C438.679 15.1938 441.395 15.9733 443.167 17.5323C444.939 19.0749 445.826 21.2656 445.826 24.1046V35.1323ZM434.158 38.0369C435.142 38.0369 436.135 37.7662 437.136 37.2246C438.137 36.6667 438.933 35.879 439.524 34.8615V29.7908H436.964C434.552 29.7908 432.804 30.1764 431.721 30.9477C430.654 31.719 430.121 32.8103 430.121 34.2215C430.121 36.7651 431.467 38.0369 434.158 38.0369ZM466.963 5.52V34.4185C466.963 35.5508 467.299 36.3549 467.972 36.8308C468.645 37.3067 469.539 37.5446 470.655 37.5446C471.361 37.5446 472.042 37.4708 472.698 37.3231C473.355 37.159 473.978 36.9621 474.569 36.7323L476.169 41.1631C475.349 41.5897 474.348 41.959 473.166 42.2708C472.001 42.5826 470.647 42.7385 469.105 42.7385C466.266 42.7385 464.116 41.9262 462.655 40.3015C461.195 38.6769 460.465 36.4862 460.465 33.7292V10.1231H452.661V5.52H466.963Z" fill="#B0C1FF"/>
</svg>
