<svg width="750" height="263" viewBox="0 0 750 263" fill="none" xmlns="http://www.w3.org/2000/svg">
<rect width="750" height="263" fill="#26397C"/>
<path d="M152.958 127L158.375 123L152.958 119" stroke="#B0C1FF" stroke-width="4" stroke-linecap="round" stroke-linejoin="round"/>
<path d="M163.792 131H174.625" stroke="#B0C1FF" stroke-width="4" stroke-linecap="round" stroke-linejoin="round"/>
<path d="M185.458 111H147.542C144.55 111 142.125 112.791 142.125 115V143C142.125 145.209 144.55 147 147.542 147H185.458C188.45 147 190.875 145.209 190.875 143V115C190.875 112.791 188.45 111 185.458 111Z" stroke="#B0C1FF" stroke-width="5" stroke-linecap="round" stroke-linejoin="round"/>
<path d="M241.396 122.025C241.396 124.503 240.683 126.513 239.255 128.055C237.844 129.582 236.112 130.689 234.061 131.378L243.39 146H235.661L227.612 132.437H224.51V146H217.79V111.957H227.809C232.289 111.957 235.669 112.786 237.95 114.443C240.248 116.101 241.396 118.628 241.396 122.025ZM234.406 122.025C234.406 120.203 233.872 118.882 232.806 118.062C231.739 117.241 230.131 116.831 227.981 116.831H224.51V127.662H228.203C230.188 127.662 231.714 127.227 232.781 126.357C233.864 125.471 234.406 124.027 234.406 122.025ZM253.205 134.948C253.402 137.393 254.124 139.157 255.371 140.24C256.618 141.323 258.136 141.865 259.925 141.865C261.172 141.865 262.345 141.668 263.445 141.274C264.544 140.88 265.627 140.33 266.694 139.625L269.402 143.342C268.187 144.359 266.735 145.179 265.045 145.803C263.371 146.427 261.525 146.738 259.506 146.738C256.684 146.738 254.304 146.156 252.368 144.991C250.448 143.826 248.995 142.209 248.011 140.142C247.026 138.074 246.534 135.694 246.534 133.003C246.534 130.41 247.01 128.072 247.962 125.988C248.93 123.904 250.325 122.254 252.146 121.04C253.984 119.809 256.191 119.194 258.768 119.194C262.345 119.194 265.184 120.359 267.285 122.689C269.385 125.019 270.435 128.244 270.435 132.363C270.435 133.315 270.394 134.176 270.312 134.948H253.205ZM258.792 123.772C257.217 123.772 255.921 124.338 254.903 125.471C253.902 126.603 253.311 128.375 253.131 130.788H264.109C264.076 128.589 263.625 126.874 262.755 125.643C261.886 124.396 260.565 123.772 258.792 123.772ZM297.997 139.132C297.997 140.133 298.145 140.864 298.441 141.323C298.736 141.783 299.212 142.119 299.868 142.332L298.465 146.689C297.087 146.542 295.905 146.197 294.921 145.655C293.936 145.097 293.181 144.269 292.656 143.169C291.671 144.367 290.424 145.262 288.914 145.852C287.421 146.443 285.854 146.738 284.213 146.738C281.554 146.738 279.446 145.984 277.887 144.474C276.328 142.964 275.548 141.003 275.548 138.591C275.548 135.817 276.631 133.684 278.797 132.191C280.98 130.681 284.065 129.926 288.053 129.926H291.696V128.523C291.696 126.981 291.212 125.865 290.244 125.175C289.292 124.47 287.93 124.117 286.157 124.117C285.321 124.117 284.27 124.232 283.007 124.462C281.743 124.675 280.455 125.011 279.142 125.471L277.591 121.015C279.249 120.392 280.914 119.932 282.588 119.637C284.278 119.342 285.813 119.194 287.191 119.194C290.851 119.194 293.567 119.973 295.339 121.532C297.111 123.075 297.997 125.266 297.997 128.105V139.132ZM286.33 142.037C287.314 142.037 288.307 141.766 289.308 141.225C290.309 140.667 291.105 139.879 291.696 138.862V133.791H289.136C286.724 133.791 284.976 134.176 283.893 134.948C282.826 135.719 282.293 136.81 282.293 138.222C282.293 140.765 283.638 142.037 286.33 142.037ZM319.849 141.52C320.997 141.52 322.072 141.307 323.073 140.88C324.074 140.453 325.051 139.912 326.003 139.255L328.956 143.415C327.808 144.384 326.421 145.179 324.796 145.803C323.172 146.427 321.432 146.738 319.578 146.738C316.837 146.738 314.491 146.172 312.538 145.04C310.602 143.908 309.116 142.316 308.083 140.265C307.049 138.213 306.532 135.834 306.532 133.126C306.532 130.451 307.057 128.064 308.107 125.963C309.174 123.863 310.684 122.213 312.636 121.015C314.606 119.801 316.952 119.194 319.676 119.194C321.547 119.194 323.237 119.465 324.747 120.006C326.273 120.531 327.668 121.319 328.932 122.369L326.052 126.357C325.084 125.701 324.083 125.192 323.049 124.831C322.015 124.47 320.956 124.289 319.873 124.289C317.953 124.289 316.386 124.987 315.172 126.382C313.974 127.76 313.375 130.008 313.375 133.126C313.375 136.211 313.99 138.386 315.221 139.649C316.452 140.896 317.994 141.52 319.849 141.52ZM358.758 144.548C357.79 145.188 356.617 145.713 355.238 146.123C353.86 146.533 352.367 146.738 350.758 146.738C347.575 146.738 345.179 145.918 343.571 144.277C341.963 142.619 341.158 140.421 341.158 137.68V124.535H335.497V119.932H341.158V114.197L347.657 113.409V119.932H356.272L355.608 124.535H347.657V137.655C347.657 139.001 347.985 139.986 348.641 140.609C349.298 141.233 350.356 141.545 351.817 141.545C352.752 141.545 353.606 141.438 354.377 141.225C355.165 140.995 355.878 140.708 356.518 140.363L358.758 144.548Z" fill="#B0C1FF"/>
<path d="M395.943 118.249V147H389.223V118.249H379.278V112.957H406.183L405.493 118.249H395.943ZM416.908 135.948C417.105 138.393 417.827 140.157 419.074 141.24C420.321 142.323 421.839 142.865 423.628 142.865C424.875 142.865 426.048 142.668 427.148 142.274C428.247 141.88 429.33 141.33 430.397 140.625L433.105 144.342C431.89 145.359 430.438 146.179 428.748 146.803C427.074 147.427 425.228 147.738 423.209 147.738C420.387 147.738 418.007 147.156 416.071 145.991C414.151 144.826 412.699 143.209 411.714 141.142C410.729 139.074 410.237 136.694 410.237 134.003C410.237 131.41 410.713 129.072 411.665 126.988C412.633 124.904 414.028 123.254 415.849 122.04C417.687 120.809 419.894 120.194 422.471 120.194C426.048 120.194 428.887 121.359 430.988 123.689C433.088 126.019 434.139 129.244 434.139 133.363C434.139 134.315 434.098 135.176 434.015 135.948H416.908ZM422.495 124.772C420.92 124.772 419.624 125.338 418.606 126.471C417.605 127.603 417.014 129.375 416.834 131.788H427.812C427.78 129.589 427.328 127.874 426.459 126.643C425.589 125.396 424.268 124.772 422.495 124.772ZM441.147 147V142.495H444.814V125.412H441.147V120.932H449.762L450.968 126.914C451.92 124.715 453.118 123.049 454.562 121.917C456.006 120.785 457.82 120.218 460.002 120.218C460.839 120.218 461.577 120.284 462.217 120.415C462.857 120.547 463.481 120.719 464.088 120.932L462.931 131.098H458.599V126.003C456.909 126.151 455.448 126.922 454.217 128.317C452.987 129.695 452.019 131.517 451.313 133.782V142.495H456.507V147H441.147ZM488.967 120.194C490.608 120.194 491.905 120.744 492.856 121.843C493.808 122.926 494.284 124.871 494.284 127.677V147H488.623V128.489C488.623 127.324 488.532 126.495 488.352 126.003C488.171 125.494 487.745 125.24 487.072 125.24C486.53 125.24 485.981 125.404 485.423 125.732C484.865 126.044 484.298 126.61 483.724 127.431V147H478.826V128.489C478.826 127.324 478.735 126.495 478.555 126.003C478.374 125.494 477.948 125.24 477.275 125.24C476.733 125.24 476.184 125.404 475.626 125.732C475.068 126.044 474.502 126.61 473.927 127.431V147H468.192V120.932H473.041L473.46 123.64C474.231 122.573 475.043 121.736 475.896 121.129C476.75 120.506 477.775 120.194 478.973 120.194C479.958 120.194 480.828 120.44 481.583 120.932C482.354 121.408 482.904 122.229 483.232 123.394C483.987 122.442 484.824 121.671 485.743 121.08C486.678 120.489 487.753 120.194 488.967 120.194ZM510.745 107.788C511.926 107.788 512.894 108.157 513.649 108.895C514.404 109.634 514.782 110.553 514.782 111.652C514.782 112.752 514.404 113.679 513.649 114.434C512.894 115.172 511.926 115.542 510.745 115.542C509.547 115.542 508.57 115.172 507.815 114.434C507.061 113.679 506.683 112.752 506.683 111.652C506.683 110.553 507.061 109.634 507.815 108.895C508.57 108.157 509.547 107.788 510.745 107.788ZM514.954 120.932V142.397H521.822V147H500.825V142.397H508.455V125.535H501.071V120.932H514.954ZM529.494 147V120.932H535.156L535.624 124.157C537.872 121.515 540.629 120.194 543.894 120.194C546.225 120.194 548.005 120.875 549.236 122.237C550.483 123.583 551.107 125.478 551.107 127.923V147H544.608V130.458C544.608 128.489 544.403 127.094 543.993 126.274C543.599 125.453 542.746 125.043 541.433 125.043C540.366 125.043 539.373 125.379 538.454 126.052C537.535 126.725 536.715 127.546 535.993 128.514V147H529.494ZM579.826 140.132C579.826 141.133 579.973 141.864 580.269 142.323C580.564 142.783 581.04 143.119 581.696 143.332L580.293 147.689C578.915 147.542 577.733 147.197 576.749 146.655C575.764 146.097 575.009 145.269 574.484 144.169C573.499 145.367 572.252 146.262 570.742 146.852C569.249 147.443 567.682 147.738 566.041 147.738C563.382 147.738 561.274 146.984 559.715 145.474C558.156 143.964 557.376 142.003 557.376 139.591C557.376 136.817 558.459 134.684 560.626 133.191C562.808 131.681 565.893 130.926 569.881 130.926H573.524V129.523C573.524 127.981 573.04 126.865 572.072 126.175C571.12 125.47 569.758 125.117 567.986 125.117C567.149 125.117 566.098 125.232 564.835 125.462C563.571 125.675 562.283 126.011 560.97 126.471L559.419 122.015C561.077 121.392 562.742 120.932 564.416 120.637C566.107 120.342 567.641 120.194 569.019 120.194C572.679 120.194 575.395 120.973 577.167 122.532C578.939 124.075 579.826 126.266 579.826 129.105V140.132ZM568.158 143.037C569.142 143.037 570.135 142.766 571.136 142.225C572.137 141.667 572.933 140.879 573.524 139.862V134.791H570.964C568.552 134.791 566.804 135.176 565.721 135.948C564.654 136.719 564.121 137.81 564.121 139.222C564.121 141.765 565.467 143.037 568.158 143.037ZM600.963 110.52V139.418C600.963 140.551 601.299 141.355 601.972 141.831C602.645 142.307 603.539 142.545 604.655 142.545C605.361 142.545 606.042 142.471 606.698 142.323C607.355 142.159 607.978 141.962 608.569 141.732L610.169 146.163C609.349 146.59 608.348 146.959 607.166 147.271C606.001 147.583 604.647 147.738 603.105 147.738C600.266 147.738 598.116 146.926 596.655 145.302C595.195 143.677 594.465 141.486 594.465 138.729V115.123H586.661V110.52H600.963Z" fill="#B0C1FF"/>
</svg>
